<?xml version="1.0" encoding="UTF-8"?>
<svg id="Camada_2" data-name="Camada 2" xmlns="http://www.w3.org/2000/svg" viewBox="0 0 1224.36 277.92">
  <defs>
    <style>
      .cls-1 {
        fill: #e50001;
      }
    </style>
  </defs>
  <g id="Camada_1-2" data-name="Camada 1">
    <g>
      <g>
        <path class="cls-1" d="M625.18,112.72l-.15-70.49-34.94,58.34h-8.81l-34.94-57.42v69.58h-18.84V6.38h16.25l42.23,70.49,41.47-70.49h16.25l.15,106.34h-18.69Z"/>
        <path class="cls-1" d="M742.92,78.24h-63.65c2.28,11.85,12.15,19.45,26.28,19.45,9.12,0,16.25-2.89,22.03-8.81l10.18,11.7c-7.29,8.66-18.69,13.22-32.66,13.22-27.19,0-44.82-17.47-44.82-41.62s17.77-41.47,41.93-41.47,41.02,16.56,41.02,41.93c0,1.52-.15,3.8-.3,5.62ZM679.12,65.63h46.03c-1.52-11.7-10.48-19.75-22.94-19.75s-21.27,7.9-23.09,19.75Z"/>
        <path class="cls-1" d="M804.6,30.69v18.08c-1.67-.3-3.04-.46-4.41-.46-14.43,0-23.55,8.51-23.55,25.07v39.35h-18.99V31.6h18.08v11.85c5.47-8.51,15.34-12.76,28.86-12.76Z"/>
        <path class="cls-1" d="M809.47,72.16c0-24.31,18.23-41.47,43.9-41.47,15.8,0,28.41,6.53,34.64,18.84l-14.58,8.51c-4.86-7.75-12.15-11.24-20.21-11.24-13.98,0-24.61,9.72-24.61,25.37s10.63,25.37,24.61,25.37c8.05,0,15.34-3.49,20.21-11.24l14.58,8.51c-6.23,12.15-18.84,18.99-34.64,18.99-25.67,0-43.9-17.32-43.9-41.62Z"/>
        <path class="cls-1" d="M968.52,65.17v47.55h-17.93v-9.87c-4.56,6.99-13.37,10.94-25.52,10.94-18.53,0-30.23-10.18-30.23-24.31s9.12-24.15,33.73-24.15h20.96v-1.22c0-11.09-6.68-17.62-20.21-17.62-9.11,0-18.53,3.04-24.61,8.05l-7.44-13.82c8.66-6.68,21.27-10.03,34.33-10.03,23.39,0,36.92,11.09,36.92,34.48ZM949.53,87.35v-9.42h-19.6c-12.91,0-16.41,4.86-16.41,10.79,0,6.84,5.77,11.24,15.5,11.24s17.32-4.25,20.51-12.61Z"/>
        <path class="cls-1" d="M1069.25,0v112.72h-18.23v-10.48c-6.38,7.75-15.8,11.55-26.89,11.55-23.55,0-41.02-16.41-41.02-41.62s17.47-41.47,41.02-41.47c10.48,0,19.75,3.49,26.13,10.94V0h18.99ZM1050.56,72.16c0-15.5-10.48-25.37-24.15-25.37s-24.16,9.87-24.16,25.37,10.48,25.37,24.16,25.37,24.15-9.88,24.15-25.37Z"/>
        <path class="cls-1" d="M1083.68,72.16c0-24.31,18.23-41.47,43.14-41.47s43.3,17.17,43.3,41.47-18.08,41.62-43.3,41.62-43.14-17.32-43.14-41.62ZM1150.98,72.16c0-15.5-10.33-25.37-24.16-25.37s-24,9.87-24,25.37,10.33,25.37,24,25.37,24.16-9.88,24.16-25.37Z"/>
        <path class="cls-1" d="M609.99,151.92v112.72h-27.5v-8.2c-5.47,6.53-13.52,9.57-24.16,9.57-22.48,0-40.56-16.41-40.56-42.69s18.08-42.38,40.56-42.38c9.57,0,17.32,2.73,22.79,8.51v-37.52h28.86ZM581.58,223.32c0-12.46-7.44-19.45-17.17-19.45s-17.32,6.99-17.32,19.45,7.44,19.75,17.32,19.75,17.17-7.14,17.17-19.75Z"/>
        <path class="cls-1" d="M619.56,223.32c0-24.76,19.6-42.38,46.49-42.38s46.49,17.62,46.49,42.38-19.29,42.69-46.49,42.69-46.49-17.77-46.49-42.69ZM683.37,223.32c0-12.46-7.44-19.45-17.32-19.45s-17.32,6.99-17.32,19.45,7.6,19.75,17.32,19.75,17.32-7.14,17.32-19.75Z"/>
        <path class="cls-1" d="M865.06,235.48c0,18.38-15.19,29.17-43.75,29.17h-57.42v-106.34h54.39c27.95,0,41.62,11.39,41.62,27.8,0,10.18-5.17,18.38-14.28,23.09,12,4.25,19.45,13.37,19.45,26.28ZM793.66,180.03v20.51h20.66c10.03,0,15.19-3.49,15.19-10.33s-5.17-10.18-15.19-10.18h-20.66ZM834.68,232.13c0-7.29-5.47-10.79-15.8-10.79h-25.22v21.57h25.22c10.33,0,15.8-3.49,15.8-10.79Z"/>
        <path class="cls-1" d="M952.72,218.92v45.73h-26.89v-10.63c-4.1,7.9-12.31,12-24.31,12-19.75,0-30.69-11.09-30.69-25.37,0-15.19,11.09-24.61,36.61-24.61h16.41c-.46-8.36-6.08-13.07-17.47-13.07-7.9,0-16.71,2.74-22.33,7.14l-9.72-19.6c9.42-6.23,23.39-9.57,36.31-9.57,26.74,0,42.08,11.85,42.08,37.98ZM923.86,238.21v-7.14h-12.46c-9.27,0-12.61,3.34-12.61,8.36s3.95,8.36,10.79,8.36c6.38,0,12-3.04,14.28-9.57Z"/>
        <path class="cls-1" d="M963.97,157.85c0-8.66,6.99-15.34,17.62-15.34s17.62,6.23,17.62,14.89c0,9.11-6.99,15.8-17.62,15.8s-17.62-6.68-17.62-15.34ZM967.16,182.31h28.86v82.34h-28.86v-82.34Z"/>
        <path class="cls-1" d="M1066.05,180.94v25.98c-2.58-.3-4.41-.46-6.53-.46-11.7,0-19.75,5.92-19.75,20.36v37.83h-28.86v-82.34h27.5v9.87c5.92-7.44,15.5-11.24,27.65-11.24Z"/>
        <path class="cls-1" d="M1129.25,180.94v25.98c-2.58-.3-4.41-.46-6.53-.46-11.7,0-19.75,5.92-19.75,20.36v37.83h-28.86v-82.34h27.5v9.87c5.92-7.44,15.5-11.24,27.65-11.24Z"/>
        <path class="cls-1" d="M1131.38,223.32c0-24.76,19.6-42.38,46.49-42.38s46.49,17.62,46.49,42.38-19.29,42.69-46.49,42.69-46.49-17.77-46.49-42.69ZM1195.19,223.32c0-12.46-7.44-19.45-17.32-19.45s-17.32,6.99-17.32,19.45,7.6,19.75,17.32,19.75,17.32-7.14,17.32-19.75Z"/>
      </g>
      <path class="cls-1" d="M358.26,2.41c20.91.65,41.25,1.35,59.14,13.32,42.75,28.61,39.07,93.88-7.9,115.33,7.97,4.18,16.78,6.68,24.14,12.09,47.57,34.97,29.01,113.82-25.7,130.02-9.45,2.8-18.79,3.21-28.42,4.68l-150.4.07-75.19-206.09c-6.98-13.12-21.36-22.35-36.14-23.82-.33-.03-52.87-.09-53.2-.09-15.66,0-28.56,1.01-43.28-8.13C8.01,31.53,3.07,16.24,0,1.77h140.29c19.75,0,47.76,19.3,57.05,36.64,25.71,63.49,46.78,128.96,71.2,193,30.43-1.03,62.67,2.08,92.91.26,23.76-1.43,43.33-10.75,41.79-38.12-3.21-56.99-92-24.84-123.53-38.9-16.73-7.46-22.28-26.64-26.37-42.96h106.81c11.53,0,27.03-9.07,30.88-20.33,9.05-26.46-8.45-41.49-33.4-43.36-35.86-2.69-74.46,2.44-110.6-.58-21.93-5.37-28.69-26.06-33.67-45.65h48.72l96.17.64Z"/>
    </g>
  </g>
</svg>